<?xml version="1.0" standalone="no"?>
<!DOCTYPE svg PUBLIC "-//W3C//DTD SVG 20010904//EN"
 "http://www.w3.org/TR/2001/REC-SVG-20010904/DTD/svg10.dtd">
<svg version="1.0" xmlns="http://www.w3.org/2000/svg"
 width="597.000000pt" height="330.000000pt" viewBox="0 0 597.000000 330.000000"
 preserveAspectRatio="xMidYMid meet">

<g transform="translate(0.000000,330.000000) scale(0.100000,-0.100000)"
fill="#000000" stroke="none">
<path d="M4474 3190 c-12 -5 -24 -15 -27 -22 -2 -8 -34 -31 -70 -52 -85 -50
-231 -199 -247 -253 -6 -21 -10 -56 -8 -78 l3 -40 41 75 c23 41 47 93 53 114
9 35 74 116 92 116 14 0 -4 -41 -22 -51 -48 -25 -43 -100 8 -120 68 -26 110
76 49 117 -38 24 -23 70 32 105 25 16 50 29 54 29 4 0 8 -18 8 -40 0 -28 -4
-40 -14 -40 -18 0 -28 -23 -36 -90 -4 -30 -10 -62 -14 -71 -6 -14 5 -16 99
-17 95 0 106 1 100 16 -4 10 -10 41 -14 70 -9 60 -35 93 -75 95 -24 2 -26 6
-26 44 0 50 13 57 105 55 70 -1 130 -20 197 -63 l48 -31 -25 -30 c-23 -27 -40
-73 -47 -128 -2 -19 -10 -26 -33 -30 -25 -4 -35 -15 -59 -67 -18 -38 -38 -65
-50 -69 -19 -6 -19 -7 0 -21 12 -9 32 -12 55 -9 26 4 38 2 42 -8 4 -10 24 -14
69 -14 76 0 82 3 64 31 -7 12 -16 45 -20 72 -4 38 -12 55 -33 72 -26 21 -26
23 -15 75 7 29 24 67 37 83 l25 30 50 -53 c31 -33 68 -89 95 -146 51 -103 54
-116 25 -109 -52 14 -132 -63 -170 -165 -15 -40 -22 -47 -48 -50 -38 -4 -64
-32 -71 -80 -4 -23 -12 -37 -21 -37 -29 -1 -24 -20 8 -31 17 -5 37 -15 44 -22
15 -15 41 -15 55 -1 17 17 37 1 23 -17 -7 -7 -17 -35 -24 -61 -9 -37 -17 -49
-34 -51 -29 -4 -28 -17 4 -48 18 -19 31 -24 49 -20 14 4 34 1 45 -6 15 -10 24
-10 38 -1 11 6 38 9 64 6 50 -6 71 9 38 27 -16 8 -20 21 -20 56 0 52 -12 81
-48 110 l-25 21 19 38 c27 55 67 70 121 45 l40 -18 6 -77 c4 -43 7 -123 7
-178 0 -99 -1 -102 -44 -186 -65 -127 -126 -275 -215 -521 -138 -379 -200
-628 -236 -950 -17 -158 -20 -410 -4 -410 7 0 8 27 4 82 -13 159 36 579 77
665 23 51 163 184 240 230 93 56 90 59 56 -74 -63 -252 -128 -434 -225 -627
-30 -59 -51 -111 -48 -114 9 -9 17 6 89 163 76 165 152 386 199 575 l33 135
120 63 c65 35 148 82 184 105 91 58 256 226 306 312 84 144 154 355 188 570
24 148 29 205 17 205 -6 0 -11 -9 -11 -20 0 -36 -40 -143 -72 -194 -51 -78
-326 -328 -502 -454 -87 -62 -160 -111 -162 -109 -3 2 0 64 6 138 5 74 10 172
10 219 l0 86 61 94 c71 111 145 200 164 200 22 0 45 -42 45 -82 0 -36 -1 -38
-34 -38 -43 0 -82 -31 -90 -71 -4 -19 -13 -33 -26 -36 -11 -3 -20 -8 -20 -12
0 -13 24 -31 41 -31 9 0 28 -11 43 -25 15 -14 36 -25 47 -25 12 0 34 -8 50
-17 33 -20 46 -13 28 14 -9 16 -7 27 10 62 24 46 21 72 -11 107 -12 14 -20 39
-22 68 -2 30 -11 58 -26 78 l-23 31 51 49 c42 40 54 47 73 39 29 -10 55 -47
62 -87 5 -27 2 -32 -27 -42 -21 -8 -38 -24 -49 -47 -9 -19 -23 -35 -32 -35
-25 0 -17 -19 13 -33 15 -6 32 -18 37 -25 6 -7 22 -15 35 -17 14 -3 40 -8 58
-11 30 -6 45 7 23 21 -5 3 -7 30 -4 59 5 47 3 56 -16 72 -13 11 -21 30 -21 49
0 33 -32 93 -55 101 -25 10 -17 22 26 44 75 39 124 10 80 -46 -27 -34 -27 -78
-1 -104 24 -24 32 -25 59 -2 36 30 37 72 2 116 -35 44 -39 66 -12 66 23 0 73
39 66 51 -12 19 -48 7 -163 -51 -74 -38 -140 -80 -179 -115 -33 -30 -70 -55
-80 -55 -44 0 -92 -63 -107 -139 -3 -19 -18 -55 -32 -79 -36 -60 -44 -43 -44
93 0 123 -12 241 -36 356 l-16 76 27 47 c21 36 27 59 26 102 -1 93 -15 86 -52
-25 l-22 -64 -24 59 c-14 32 -40 82 -59 111 -19 29 -34 59 -34 66 0 26 -40 77
-61 77 -11 0 -35 11 -52 24 -53 40 -115 67 -185 80 -37 8 -78 18 -92 24 -14 5
-34 6 -46 2z m36 -20 c-20 -13 -40 -13 -40 0 0 6 12 10 28 10 21 0 24 -2 12
-10z m15 -150 c24 -27 35 -140 13 -140 -8 0 -19 5 -26 12 -8 8 -15 8 -26 -1
-10 -9 -20 -10 -33 -3 -12 7 -24 7 -37 0 -18 -10 -19 -7 -12 58 7 72 25 111
27 59 l1 -30 10 28 c11 32 15 33 48 10 l25 -17 -19 22 c-15 18 -16 22 -4 22 8
0 23 -9 33 -20z m350 9 c11 -17 -1 -21 -15 -4 -8 9 -8 15 -2 15 6 0 14 -5 17
-11z m-521 -72 c13 -37 -3 -62 -40 -62 -22 0 -31 6 -38 26 -5 15 -6 35 -1 45
7 18 7 18 15 -1 9 -19 9 -19 16 3 9 31 36 24 48 -11z m-154 -37 c0 -16 -54
-110 -64 -110 -4 0 -5 7 -2 16 3 9 6 21 6 27 0 18 38 77 50 77 5 0 10 -4 10
-10z m500 -79 c-15 -30 -12 -36 8 -12 14 17 20 18 33 8 9 -7 18 -19 22 -27 3
-10 6 -6 6 9 2 42 16 12 27 -57 6 -37 10 -68 9 -70 -2 -2 -13 2 -25 8 -15 8
-25 8 -34 1 -16 -13 -42 -5 -50 14 -3 10 -16 12 -43 8 -33 -6 -36 -4 -26 9 7
8 20 34 28 58 8 24 20 49 26 57 17 20 31 16 19 -6z m380 -65 c-6 -19 -18 -40
-27 -48 -14 -11 -15 -9 -8 21 4 19 14 50 23 70 14 32 16 33 20 13 2 -12 -2
-38 -8 -56z m-64 -67 c14 -12 41 -115 50 -194 l7 -57 -24 8 c-40 15 -96 9
-118 -10 -12 -11 -26 -34 -33 -52 -13 -38 -20 -41 -42 -19 -10 11 -12 23 -7
43 9 31 5 50 -16 74 -20 22 -13 48 34 126 55 90 104 117 149 81z m659 -128
c-6 -5 -23 -12 -40 -16 -29 -6 -29 -6 -11 9 21 17 67 23 51 7z m-864 -114 l1
-32 7 30 c9 44 21 17 18 -44 -2 -47 -4 -51 -27 -51 -15 0 -32 -6 -39 -12 -10
-11 -15 -10 -25 5 -7 9 -21 17 -30 17 -12 0 -16 6 -13 18 3 9 8 30 12 47 9 42
20 52 60 53 33 1 35 -1 36 -31z m836 -3 c3 -8 0 -27 -6 -41 -11 -23 -10 -25 3
-13 13 10 16 10 16 -2 0 -19 -20 -38 -42 -38 -36 0 -46 60 -16 98 14 17 37 15
45 -4z m-357 -101 c0 -5 -23 -33 -50 -63 l-50 -55 15 40 c18 47 85 109 85 78z
m-399 -55 c2 -31 2 -31 6 -5 5 34 23 26 24 -11 1 -17 3 -21 6 -9 2 9 9 17 14
17 9 0 11 -8 13 -65 1 -16 5 -40 10 -53 7 -22 6 -23 -28 -16 -24 4 -42 2 -51
-6 -13 -10 -19 -10 -33 3 -9 9 -28 13 -42 11 -14 -2 -32 0 -40 5 -12 9 -12 12
2 28 9 10 22 39 28 66 12 47 30 71 38 49 2 -8 8 -7 19 3 23 23 33 18 34 -17z
m669 -8 c9 0 11 -11 6 -37 -3 -21 -6 -49 -6 -62 0 -20 -3 -22 -12 -13 -7 7
-25 12 -41 12 -20 0 -30 6 -34 20 -3 11 -14 20 -24 20 -17 0 -17 2 3 38 28 49
28 48 37 34 6 -10 11 -9 21 3 13 15 15 15 26 1 6 -9 17 -16 24 -16z m-260
-102 c-28 -46 -25 -55 5 -19 46 54 83 50 86 -9 l1 -25 8 25 7 25 8 -29 c5 -19
3 -39 -9 -62 -9 -19 -16 -42 -16 -51 0 -13 -3 -14 -12 -5 -7 7 -27 12 -45 12
-22 0 -36 6 -43 20 -6 12 -21 20 -36 20 -14 0 -24 3 -22 8 2 4 13 28 25 54 17
37 42 65 60 68 2 0 -6 -15 -17 -32z m410 -145 c-110 -196 -262 -360 -489 -530
-86 -64 -183 -144 -216 -178 -64 -64 -233 -283 -260 -336 -9 -17 -19 -29 -21
-26 -9 9 63 141 127 232 86 121 226 260 459 455 221 186 309 273 377 371 25
38 48 69 51 69 2 0 -11 -26 -28 -57z m35 7 c-28 -78 -126 -257 -186 -341 -91
-124 -171 -197 -280 -255 -129 -68 -212 -136 -306 -251 -83 -100 -223 -244
-223 -229 0 14 109 165 191 266 88 107 124 139 294 265 207 152 384 343 480
518 20 37 38 67 40 67 2 0 -2 -18 -10 -40z m-76 -17 c-55 -81 -185 -207 -409
-397 -297 -253 -411 -378 -507 -561 -23 -44 -43 -74 -43 -67 0 31 64 175 119
265 127 208 220 300 479 476 51 35 156 124 235 197 78 73 146 134 150 134 4 0
-7 -21 -24 -47z m82 -72 c-61 -220 -100 -285 -224 -371 -38 -28 -74 -50 -79
-50 -5 0 18 31 51 69 102 119 192 265 247 404 14 37 29 66 31 63 3 -2 -9 -54
-26 -115z m-670 -126 c-6 -96 -11 -189 -11 -206 0 -24 -14 -45 -64 -97 -75
-79 -163 -199 -218 -299 -22 -40 -42 -73 -44 -73 -6 0 123 367 182 513 70 175
152 352 160 344 3 -3 1 -85 -5 -182z m528 -217 c-54 -103 -203 -246 -349 -335
-101 -61 -343 -186 -339 -174 11 30 142 181 194 223 33 26 130 84 215 128 85
44 184 103 220 129 36 27 66 50 68 50 1 1 -3 -9 -9 -21z"/>
<path d="M4732 2790 c0 -14 2 -19 5 -12 2 6 2 18 0 25 -3 6 -5 1 -5 -13z"/>
<path d="M5541 2264 c0 -11 3 -14 6 -6 3 7 2 16 -1 19 -3 4 -6 -2 -5 -13z"/>
<path d="M1642 2669 c-61 -31 -116 -99 -175 -217 l-52 -104 -110 4 c-92 4
-145 14 -330 62 -255 67 -340 75 -412 38 -142 -73 -149 -283 -10 -353 50 -26
172 -38 205 -20 33 17 27 39 -15 56 -21 9 -52 30 -70 47 -20 19 -38 28 -47 25
-25 -10 -19 -33 15 -62 17 -14 29 -28 27 -31 -10 -9 -101 17 -128 36 -83 59
-75 197 16 266 35 27 44 29 123 29 73 -1 119 -10 296 -58 129 -35 251 -61 315
-68 58 -7 106 -13 107 -14 2 -1 -11 -39 -28 -86 -17 -46 -66 -186 -109 -311
-127 -367 -201 -541 -308 -721 l-47 -79 -45 7 c-282 39 -338 42 -450 25 -205
-33 -319 -121 -320 -247 -1 -157 283 -193 536 -69 70 35 111 65 183 133 l93
87 92 -23 c50 -12 217 -65 371 -116 406 -136 518 -161 770 -174 536 -28 939
101 979 315 16 84 -58 147 -145 124 -45 -12 -94 -51 -114 -91 -24 -45 -2 -42
38 6 72 85 187 78 187 -12 0 -192 -423 -327 -920 -293 -272 18 -358 38 -795
185 -170 57 -336 109 -367 117 -32 7 -58 15 -58 18 0 3 23 39 51 80 102 153
222 426 348 795 34 99 76 217 93 262 l30 82 68 20 c167 51 318 215 277 300
-25 52 -94 65 -165 30z m112 -35 c40 -15 -7 -113 -86 -177 -44 -36 -141 -87
-166 -87 -18 0 -8 29 31 100 76 138 149 192 221 164z m-981 -1565 c42 -7 77
-15 77 -19 0 -15 -75 -92 -133 -135 -126 -95 -239 -135 -378 -135 -158 1 -224
49 -198 144 18 66 125 135 239 155 69 12 290 7 393 -10z"/>
<path d="M3268 2463 c-49 -57 -124 -213 -295 -618 -63 -148 -121 -280 -128
-292 -20 -29 -129 -106 -196 -138 -68 -31 -140 -34 -169 -5 -44 44 -33 118 26
170 42 37 64 39 64 6 0 -33 16 -42 30 -16 12 23 0 54 -26 64 -34 13 -144 -70
-144 -110 0 -21 -78 -83 -113 -89 -53 -10 -90 14 -120 79 -42 87 -55 89 -133
14 l-66 -63 26 69 c28 74 33 110 14 104 -7 -3 -22 -23 -34 -46 -54 -102 -202
-172 -270 -127 -24 15 -25 21 -19 61 5 35 3 44 -8 44 -8 0 -20 -14 -27 -30
-22 -54 -99 -107 -122 -84 -3 3 0 33 8 66 11 46 12 64 3 74 -6 8 -15 14 -19
14 -10 0 -39 -77 -32 -85 4 -3 5 -21 4 -39 -4 -37 18 -66 48 -66 10 0 39 16
65 35 l46 35 23 -27 c21 -24 31 -28 74 -27 56 2 124 29 179 71 l36 28 -7 -35
c-5 -19 -10 -45 -13 -57 -8 -34 10 -28 49 15 34 38 99 92 110 92 4 0 18 -20
32 -44 38 -64 69 -86 126 -86 34 0 58 7 84 25 43 29 46 30 46 10 0 -47 51 -95
103 -95 50 0 130 33 209 85 44 30 83 53 85 51 2 -2 -7 -32 -21 -67 -47 -113
-26 -120 53 -18 57 73 160 159 191 159 21 0 32 -13 50 -60 18 -47 46 -77 78
-83 34 -7 104 15 153 47 38 25 39 26 39 6 0 -59 58 -110 125 -110 71 0 190 57
268 128 l27 26 0 -56 c0 -59 12 -81 50 -93 57 -18 153 85 262 280 29 52 54 93
55 91 1 -1 -20 -69 -48 -152 -53 -157 -115 -385 -125 -466 -5 -39 -4 -48 9
-48 11 0 20 22 32 78 38 177 122 444 211 671 l48 124 130 -6 c81 -4 123 -3
111 3 -11 5 -56 9 -100 10 -44 2 -92 5 -106 9 l-26 6 38 95 c43 106 46 123 23
118 -9 -2 -33 -45 -59 -108 l-42 -105 -117 -9 c-64 -5 -119 -6 -121 -4 -3 3 7
33 21 68 24 59 26 90 6 90 -5 0 -24 -36 -42 -79 l-33 -80 -75 -3 c-40 -2 -76
1 -79 5 -6 10 -64 -1 -77 -14 -6 -5 36 -9 103 -9 103 0 113 -2 108 -17 -7 -21
-108 -266 -140 -337 -42 -95 -182 -186 -285 -186 -66 0 -90 12 -108 55 -17 42
-9 65 23 65 53 0 103 43 103 89 0 67 -116 27 -154 -53 -31 -66 -191 -123 -226
-81 -7 9 -23 38 -36 65 -12 26 -32 53 -43 60 -29 15 -79 -10 -151 -77 -32 -29
-60 -53 -63 -53 -15 0 64 146 180 330 203 323 283 495 286 615 2 54 0 60 -19
63 -11 2 -27 -5 -36 -15z m26 -70 c-13 -73 -47 -169 -95 -273 -49 -103 -212
-384 -229 -395 -10 -6 -2 14 122 305 81 191 185 400 199 400 6 0 7 -15 3 -37z
m936 -449 c0 -12 -152 -288 -197 -357 -86 -135 -173 -206 -208 -171 -8 9 -15
26 -15 39 0 39 48 180 117 343 l65 152 119 0 c65 0 119 -3 119 -6z m-730 -347
c0 -18 -28 -43 -63 -56 -38 -15 -36 9 4 43 33 28 59 34 59 13z"/>
<path d="M4365 1642 c-33 -7 -81 -49 -99 -85 -44 -95 9 -187 109 -187 71 0
190 57 268 128 46 44 30 46 -19 3 -26 -22 -74 -54 -107 -71 -115 -58 -226 -34
-230 50 -2 32 0 35 33 40 65 12 100 42 100 89 0 24 -26 39 -55 33z m25 -40 c0
-18 -32 -51 -60 -60 -41 -15 -41 7 1 42 30 25 59 34 59 18z"/>
</g>
</svg>
